# xmcd
#
# Track frame offsets:
#	182
#	19962
#	39697
#	63650
#	76900
#	94917
#	109202
#	124435
#	140790
#	162680
#
# Disc length: 2456 seconds
#
# Revision: 0
# Processed by: cddbd v1.5.2PL0 Copyright (c) Steve Scherf et al.
# Submitted via: audiograbber 1.83.01
#
DISCID=9809960a
DTITLE=George Thorogood and The Destroyers - Move It On Over
DYEAR=1978
DGENRE=Blues
TTITLE0=Move It On Over
TTITLE1=Who Do You Love?
TTITLE2=The Sky Is Crying
TTITLE3=Cocaine Blues
TTITLE4=It Wasn't Me
TTITLE5=That Same Thing
TTITLE6=So Much Trouble
TTITLE7=I'm Just Your Good Thing
TTITLE8=Baby Please Set A Date
TTITLE9=New Hawaiian Boogie
EXTD=
EXTT0=
EXTT1=
EXTT2=
EXTT3=
EXTT4=
EXTT5=
EXTT6=
EXTT7=
EXTT8=
EXTT9=
PLAYORDER=
